<svg id="Layer_1" data-name="Layer 1" xmlns="http://www.w3.org/2000/svg" width="56" height="56" viewBox="0 0 56 56">
  <defs>
    <style>
      .cls-1 {
        fill: #9bdaf3;
      }

      .cls-2 {
        fill: #005e93;
      }

      .cls-3 {
        fill: #fff;
      }

      .cls-4 {
        fill: #00a0dc;
      }
    </style>
  </defs>
  <title>56dp</title>
  <g>
    <path class="cls-1" d="M28,50.5A22.5,22.5,0,1,1,50.5,28,22.53,22.53,0,0,1,28,50.5Z"/>
    <path class="cls-2" d="M28,7A21,21,0,1,1,7,28,21,21,0,0,1,28,7m0-3A24,24,0,1,0,52,28,24,24,0,0,0,28,4h0Z"/>
  </g>
  <path class="cls-3" d="M29.53,29.22L26,27.92V26.24a4.49,4.49,0,0,0,2-3.74v-3a4.5,4.5,0,0,0-9,0v3a4.49,4.49,0,0,0,2,3.74v1.68l-3.53,1.3a5.34,5.34,0,0,0-3.47,5V37H33V34.24A5.34,5.34,0,0,0,29.53,29.22Z"/>
  <path class="cls-3" d="M33.5,28.37A8.24,8.24,0,0,1,36,34.24V37h7V34.54a4.27,4.27,0,0,0-2.74-4l-2.76-1V28.37A3.49,3.49,0,0,0,39,25.5v-2a3.5,3.5,0,0,0-7,0v2A3.58,3.58,0,0,0,33.5,28.37Z"/>
  <g>
    <circle class="cls-3" cx="45.5" cy="45.5" r="9"/>
    <path class="cls-2" d="M45.5,38A7.5,7.5,0,1,1,38,45.5,7.51,7.51,0,0,1,45.5,38m0-3A10.5,10.5,0,1,0,56,45.5,10.5,10.5,0,0,0,45.5,35h0Z"/>
  </g>
  <polygon class="cls-4" points="51 44 47 44 47 40 44 40 44 44 40 44 40 47 44 47 44 51 47 51 47 47 51 47 51 44"/>
</svg>
